<svg xmlns="http://www.w3.org/2000/svg" width="512" height="512" viewBox="0 0 512 512">
<defs>
<filter id="s" x="-30%" y="-30%" width="160%" height="160%"><feDropShadow dx="0" dy="18" stdDeviation="18" flood-color="#25125f" flood-opacity=".28"/></filter>
<linearGradient id="gold" x1="0" x2="1" y1="0" y2="1"><stop offset="0" stop-color="#fff7b0"/><stop offset=".45" stop-color="#ffc941"/><stop offset="1" stop-color="#f08300"/></linearGradient>
<linearGradient id="purple" x1="0" x2="1" y1="0" y2="1"><stop offset="0" stop-color="#8f6dff"/><stop offset="1" stop-color="#4420a8"/></linearGradient>
<linearGradient id="green" x1="0" x2="1" y1="0" y2="1"><stop offset="0" stop-color="#b9ff8a"/><stop offset="1" stop-color="#20a657"/></linearGradient>
<linearGradient id="blue" x1="0" x2="1" y1="0" y2="1"><stop offset="0" stop-color="#dff6ff"/><stop offset="1" stop-color="#4c8cff"/></linearGradient>
</defs>
<g filter="url(#s)"><path d="M102 120c54 4 97 24 124 58v250c-31-32-72-49-124-53z" fill="url(#blue)"/><path d="M286 178c27-34 70-54 124-58v255c-52 4-93 21-124 53z" fill="url(#green)"/><path d="M226 178h60v250h-60z" fill="#fff"/><path d="M130 173c29 6 54 16 74 31M130 232c29 6 54 16 74 31M314 204c20-15 45-25 74-31M314 263c20-15 45-25 74-31" stroke="#235" stroke-width="16" stroke-linecap="round" opacity=".45"/><path d="M96 112c66 4 119 30 160 78 41-48 94-74 160-78" fill="none" stroke="#fff" stroke-width="18" stroke-linecap="round" opacity=".8"/></g>
</svg>