<svg xmlns="http://www.w3.org/2000/svg" width="512" height="512" viewBox="0 0 512 512">
<defs>
<filter id="s" x="-30%" y="-30%" width="160%" height="160%"><feDropShadow dx="0" dy="18" stdDeviation="18" flood-color="#25125f" flood-opacity=".28"/></filter>
<linearGradient id="gold" x1="0" x2="1" y1="0" y2="1"><stop offset="0" stop-color="#fff7b0"/><stop offset=".45" stop-color="#ffc941"/><stop offset="1" stop-color="#f08300"/></linearGradient>
<linearGradient id="purple" x1="0" x2="1" y1="0" y2="1"><stop offset="0" stop-color="#8f6dff"/><stop offset="1" stop-color="#4420a8"/></linearGradient>
<linearGradient id="green" x1="0" x2="1" y1="0" y2="1"><stop offset="0" stop-color="#b9ff8a"/><stop offset="1" stop-color="#20a657"/></linearGradient>
<linearGradient id="blue" x1="0" x2="1" y1="0" y2="1"><stop offset="0" stop-color="#dff6ff"/><stop offset="1" stop-color="#4c8cff"/></linearGradient>
</defs>
<g filter="url(#s)"><path d="M135 90h168c32 0 58 26 58 58v216c0 32-26 58-58 58H135z" fill="url(#gold)"/><path d="M151 112h133c28 0 51 23 51 51v186c0 28-23 51-51 51H151z" fill="#ff5f63"/><path d="M225 256h172" stroke="#fff" stroke-width="34" stroke-linecap="round"/><path d="m337 194 62 62-62 62" fill="none" stroke="#fff" stroke-width="34" stroke-linecap="round" stroke-linejoin="round"/><circle cx="253" cy="265" r="13" fill="#ffd65a"/></g>
</svg>